#!OML:ASF H:\Dans Jumps\Project 1\Capture day 1\Session 1\subject.ASF
:FULLY-SPECIFIED
:DEGREES
631
root 0.448844 17.7423 -3.07673 6.63278 -0.405661 -1.37731
lowerback 0.158774 -0.428885 0.00785862
upperback 3.29704 -0.622978 1.79642
thorax 3.31829 -0.339356 1.82633
lowerneck -12.7573 0.228402 -2.0965
upperneck 35.6693 0.61526 0.843489
head 14.3572 0.0919204 0.811949
rclavicle -1.19271e-015 3.97569e-015
rhumerus -26.3137 -15.2852 -79.8447
rradius 23.1972
rwrist 33.5459
rhand -18.5917 -26.2406
rfingers 7.12502
rthumb 7.69921 -56.0805
lclavicle -1.19271e-015 3.97569e-015
lhumerus -24.201 -5.10352 91.5282
lradius 17.9237
lwrist 9.64439
lhand -25.4122 -3.63425
lfingers 7.12502
lthumb 1.11349 26.3426
rfemur -17.11 -0.840246 19.0736
rtibia 22.9763
rfoot -11.5662 -1.08998
rtoes 13.9938
lfemur -15.4202 7.16675 -17.6561
ltibia 20.0308
lfoot -8.9318 2.91974
ltoes 2.99066
632
root 0.449486 17.7419 -3.0776 6.62569 -0.414137 -1.38821
lowerback 0.157555 -0.430123 0.0192925
upperback 3.30154 -0.624928 1.79678
thorax 3.32357 -0.34005 1.82023
lowerneck -12.738 0.227831 -2.09532
upperneck 35.6695 0.614975 0.839069
head 14.3529 0.0913017 0.809766
rclavicle -4.57205e-015 9.93923e-015
rhumerus -26.3208 -15.2665 -79.8454
rradius 23.1906
rwrist 33.5294
rhand -18.5675 -26.2611
rfingers 7.12502
rthumb 7.72258 -56.1001
lclavicle -4.57205e-015 9.93923e-015
lhumerus -24.2018 -5.09995 91.5137
lradius 17.914
lwrist 9.64725
lhand -25.4254 -3.65236
lfingers 7.12502
lthumb 1.10073 26.3245
rfemur -17.1077 -0.832022 19.0828
rtibia 22.9786
rfoot -11.5646 -1.09277
rtoes 13.9763
lfemur -15.4203 7.17425 -17.646
ltibia 20.0415
lfoot -8.93637 2.92226
ltoes 2.97691
633
root 0.450378 17.7418 -3.0783 6.62256 -0.418608 -1.39302
lowerback 0.154353 -0.431691 0.0297679
upperback 3.3052 -0.62726 1.79543
thorax 3.3291 -0.34093 1.81286
lowerneck -12.7281 0.228684 -2.09913
upperneck 35.6767 0.618217 0.83578
head 14.354 0.0916314 0.809606
rclavicle 8.94531e-016 3.97569e-015
rhumerus -26.333 -15.2616 -79.8397
rradius 23.1935
rwrist 33.5278
rhand -18.5439 -26.2727
rfingers 7.12502
rthumb 7.74541 -56.1108
lclavicle 8.94531e-016 3.97569e-015
lhumerus -24.199 -5.09107 91.5009
lradius 17.8992
lwrist 9.63904
lhand -25.4615 -3.70868
lfingers 7.12502
lthumb 1.06588 26.2684
rfemur -17.1074 -0.83137 19.0847
rtibia 22.9801
rfoot -11.5643 -1.09107
rtoes 13.9622
lfemur -15.4229 7.17876 -17.6439
ltibia 20.0506
lfoot -8.94209 2.92277
ltoes 2.96583
634
root 0.451248 17.7417 -3.07894 6.62065 -0.423681 -1.39518
lowerback 0.150817 -0.432987 0.0368873
upperback 3.3077 -0.629158 1.79412
thorax 3.33365 -0.34168 1.80744
lowerneck -12.7217 0.230578 -2.10205
upperneck 35.689 0.623339 0.831234
head 14.3582 0.0926737 0.809136
rclavicle 1.49089e-015 4.77083e-015
rhumerus -26.348 -15.2618 -79.8307
rradius 23.1962
rwrist 33.5317
rhand -18.5241 -26.2736
rfingers 7.12502
rthumb 7.76455 -56.111
lclavicle 1.49089e-015 4.77083e-015
lhumerus -24.196 -5.07057 91.487
lradius 17.883
lwrist 9.61929
lhand -25.4911 -3.76074
lfingers 7.12502
lthumb 1.03726 26.2165
rfemur -17.1086 -0.831298 19.0838
rtibia 22.9814
rfoot -11.5636 -1.08812
rtoes 13.9485
lfemur -15.4257 7.18349 -17.6446
ltibia 20.0585
lfoot -8.94788 2.92267
ltoes 2.96033
635
root 0.452094 17.7416 -3.0795 6.6206 -0.430469 -1.39741
lowerback 0.146126 -0.433492 0.0436073
upperback 3.30949 -0.630011 1.79335
thorax 3.33809 -0.341925 1.80282
lowerneck -12.7184 0.232843 -2.10267
upperneck 35.7038 0.62951 0.823779
head 14.3642 0.0940611 0.807275
rclavicle 5.76476e-015 1.27222e-014
rhumerus -26.3636 -15.2672 -79.8196
rradius 23.1983
rwrist 33.5377
rhand -18.5016 -26.2687
rfingers 7.12502
rthumb 7.7862 -56.1053
lclavicle 5.76476e-015 1.27222e-014
lhumerus -24.1932 -5.0466 91.474
lradius 17.8659
lwrist 9.59627
lhand -25.5428 -3.84963
lfingers 7.12502
lthumb 0.987341 26.1278
rfemur -17.1118 -0.829664 19.0831
rtibia 22.9826
rfoot -11.5623 -1.08483
rtoes 13.9368
lfemur -15.4286 7.18823 -17.6451
ltibia 20.0643
lfoot -8.95334 2.92262
ltoes 2.96944
636
root 0.45286 17.7416 -3.08003 6.62147 -0.439605 -1.39843
lowerback 0.141733 -0.43303 0.0481473
upperback 3.31098 -0.629526 1.79243
thorax 3.34203 -0.34156 1.79931
lowerneck -12.719 0.236968 -2.10177
upperneck 35.7215 0.63825 0.816053
head 14.3724 0.0966957 0.80548
rclavicle 4.57205e-015 -1.78906e-014
rhumerus -26.3765 -15.2803 -79.8068
rradius 23.1949
rwrist 33.5447
rhand -18.4849 -26.2591
rfingers 7.12502
rthumb 7.80231 -56.0951
lclavicle 4.57205e-015 -1.78906e-014
lhumerus -24.19 -5.01881 91.4611
lradius 17.8458
lwrist 9.56673
lhand -25.5462 -3.86377
lfingers 7.12502
lthumb 0.983997 26.1137
rfemur -17.1165 -0.823982 19.0811
rtibia 22.9839
rfoot -11.561 -1.08492
rtoes 13.9213
lfemur -15.4322 7.19433 -17.6468
ltibia 20.0703
lfoot -8.95844 2.92367
ltoes 2.99145
637
root 0.453628 17.7416 -3.08051 6.62365 -0.44734 -1.39683
lowerback 0.135674 -0.432867 0.0505093
upperback 3.31175 -0.629397 1.79117
thorax 3.34621 -0.341427 1.79664
lowerneck -12.7181 0.241008 -2.10046
upperneck 35.7387 0.646918 0.807764
head 14.3801 0.0992863 0.803362
rclavicle 3.37934e-015 1.59028e-015
rhumerus -26.3893 -15.2928 -79.7939
rradius 23.1909
rwrist 33.5454
rhand -18.4718 -26.2508
rfingers 7.12502
rthumb 7.81496 -56.0864
lclavicle 3.37934e-015 1.59028e-015
lhumerus -24.188 -4.98959 91.4495
lradius 17.8266
lwrist 9.53569
lhand -25.562 -3.89006
lfingers 7.12502
lthumb 0.968791 26.0875
rfemur -17.122 -0.821063 19.0763
rtibia 22.985
rfoot -11.5598 -1.08366
rtoes 13.9112
lfemur -15.4375 7.19967 -17.6518
ltibia 20.0769
lfoot -8.96386 2.92436
ltoes 3.00952
638
root 0.454378 17.7416 -3.0809 6.62567 -0.454904 -1.39602
lowerback 0.129523 -0.432718 0.0543395
upperback 3.31206 -0.629307 1.78992
thorax 3.34993 -0.341266 1.79317
lowerneck -12.7131 0.245215 -2.09595
upperneck 35.7536 0.656019 0.796099
head 14.3858 0.102065 0.799315
rclavicle -1.68967e-015 5.56597e-015
rhumerus -26.4018 -15.3087 -79.7805
rradius 23.1841
rwrist 33.5446
rhand -18.4681 -26.2401
rfingers 7.12502
rthumb 7.81856 -56.0756
lclavicle -1.68967e-015 5.56597e-015
lhumerus -24.188 -4.9612 91.439
lradius 17.8092
lwrist 9.50882
lhand -25.5837 -3.9278
lfingers 7.12502
lthumb 0.947812 26.0498
rfemur -17.1274 -0.817867 19.0724
rtibia 22.9868
rfoot -11.5591 -1.08352
rtoes 13.9052
lfemur -15.4424 7.20529 -17.6559
ltibia 20.0831
lfoot -8.96856 2.92545
ltoes 3.03079
639
root 0.45512 17.7415 -3.08124 6.62673 -0.462087 -1.39593
lowerback 0.123532 -0.432782 0.0591552
upperback 3.31305 -0.629541 1.78906
thorax 3.35429 -0.341251 1.78953
lowerneck -12.7091 0.250589 -2.0914
upperneck 35.7691 0.666564 0.785308
head 14.392 0.105581 0.795854
rclavicle 1.98785e-016 -7.15625e-015
rhumerus -26.4146 -15.3239 -79.7675
rradius 23.1799
rwrist 33.5403
rhand -18.4729 -26.2252
rfingers 7.12502
rthumb 7.81388 -56.0608
lclavicle 1.98785e-016 -7.15625e-015
lhumerus -24.1897 -4.93444 91.4298
lradius 17.7978
lwrist 9.48851
lhand -25.6096 -3.96512
lfingers 7.12502
lthumb 0.922761 26.0126
rfemur -17.132 -0.815637 19.0693
rtibia 22.9894
rfoot -11.559 -1.08233
rtoes 13.9054
lfemur -15.4458 7.21083 -17.6594
ltibia 20.0883
lfoot -8.97124 2.92722
ltoes 3.03677
640
root 0.455853 17.7414 -3.08146 6.62685 -0.469505 -1.39482
lowerback 0.116702 -0.432458 0.0640108
upperback 3.31467 -0.629247 1.78714
thorax 3.35973 -0.34096 1.7848
lowerneck -12.7039 0.254941 -2.0832
upperneck 35.7822 0.675241 0.772444
head 14.3969 0.108531 0.790578
rclavicle -6.26172e-015 1.07344e-014
rhumerus -26.4295 -15.3378 -79.7563
rradius 23.1803
rwrist 33.5332
rhand -18.4802 -26.212
rfingers 7.12502
rthumb 7.80683 -56.0479
lclavicle -6.26172e-015 1.07344e-014
lhumerus -24.1927 -4.91181 91.4214
lradius 17.7917
lwrist 9.48087
lhand -25.6281 -3.9975
lfingers 7.12502
lthumb 0.904918 25.9803
rfemur -17.136 -0.816358 19.0651
rtibia 22.9931
rfoot -11.5593 -1.0777
rtoes 13.9051
lfemur -15.4473 7.21392 -17.6639
ltibia 20.0929
lfoot -8.97262 2.93233
ltoes 3.03248
641
root 0.456552 17.7412 -3.08159 6.62676 -0.476886 -1.39204
lowerback 0.110656 -0.431864 0.0675046
upperback 3.31564 -0.628523 1.78434
thorax 3.36405 -0.340472 1.77993
lowerneck -12.6985 0.260408 -2.0716
upperneck 35.7957 0.685149 0.758113
head 14.4018 0.112271 0.78429
rclavicle -1.39149e-015 3.18055e-015
rhumerus -26.4477 -15.3542 -79.7445
rradius 23.183
rwrist 33.5284
rhand -18.4882 -26.1989
rfingers 7.12502
rthumb 7.79919 -56.0351
lclavicle -1.39149e-015 3.18055e-015
lhumerus -24.1983 -4.89518 91.4143
lradius 17.7901
lwrist 9.47998
lhand -25.6442 -4.02543
lfingers 7.12502
lthumb 0.889369 25.9525
rfemur -17.14 -0.817064 19.0593
rtibia 22.9978
rfoot -11.5588 -1.07247
rtoes 13.9035
lfemur -15.4478 7.21509 -17.67
ltibia 20.096
lfoot -8.97233 2.93921
ltoes 3.01987
642
root 0.45713 17.741 -3.08172 6.62534 -0.484559 -1.39111
lowerback 0.106384 -0.430886 0.070625
upperback 3.31744 -0.627314 1.7829
thorax 3.36824 -0.339779 1.7767
lowerneck -12.6951 0.265722 -2.05904
upperneck 35.8088 0.694872 0.743057
head 14.4071 0.115969 0.777514
rclavicle 2.08724e-015 -1.27222e-014
rhumerus -26.465 -15.3729 -79.7323
rradius 23.1874
rwrist 33.5261
rhand -18.4949 -26.1884
rfingers 7.12502
rthumb 7.79269 -56.0248
lclavicle 2.08724e-015 -1.27222e-014
lhumerus -24.2043 -4.88066 91.4094
lradius 17.7928
lwrist 9.49018
lhand -25.6486 -4.03504
lfingers 7.12502
lthumb 0.885161 25.9429
rfemur -17.1431 -0.814033 19.0559
rtibia 23.0024
rfoot -11.558 -1.06984
rtoes 13.8975
lfemur -15.4464 7.21555 -17.6732
ltibia 20.0979
lfoot -8.97178 2.94712
ltoes 3.0096
643
root 0.45771 17.7409 -3.08172 6.62274 -0.490431 -1.38759
lowerback 0.102189 -0.43033 0.0707711
upperback 3.32057 -0.626638 1.78156
thorax 3.3738 -0.339449 1.77522
lowerneck -12.6943 0.271377 -2.0484
upperneck 35.8229 0.705853 0.72775
head 14.4135 0.119911 0.771195
rclavicle 5.06901e-015 5.1684e-015
rhumerus -26.4805 -15.3935 -79.7194
rradius 23.1924
rwrist 33.5236
rhand -18.4931 -26.1874
rfingers 7.12502
rthumb 7.79439 -56.0237
lclavicle 5.06901e-015 5.1684e-015
lhumerus -24.2092 -4.86661 91.4067
lradius 17.7983
lwrist 9.5077
lhand -25.6341 -4.01417
lfingers 7.12502
lthumb 0.899122 25.9637
rfemur -17.1438 -0.813599 19.0501
rtibia 23.0067
rfoot -11.5569 -1.06626
rtoes 13.8881
lfemur -15.4428 7.21473 -17.6789
ltibia 20.099
lfoot -8.97276 2.95427
ltoes 3.00841
644
root 0.458197 17.7407 -3.08167 6.61918 -0.497767 -1.38673
lowerback 0.100301 -0.428743 0.07199
upperback 3.32409 -0.62463 1.7817
thorax 3.37844 -0.338446 1.77473
lowerneck -12.6943 0.277266 -2.0421
upperneck 35.8372 0.717136 0.71616
head 14.42 0.123904 0.767222
rclavicle 2.88238e-015 4.77083e-015
rhumerus -26.4957 -15.4146 -79.7053
rradius 23.1987
rwrist 33.5198
rhand -18.4875 -26.1892
rfingers 7.12502
rthumb 7.79981 -56.0253
lclavicle 2.88238e-015 4.77083e-015
lhumerus -24.2145 -4.85396 91.4062
lradius 17.8055
lwrist 9.52727
lhand -25.613 -3.98878
lfingers 7.12502
lthumb 0.919475 25.989
rfemur -17.1428 -0.809652 19.0477
rtibia 23.0101
rfoot -11.5559 -1.06638
rtoes 13.8611
lfemur -15.4378 7.21622 -17.6811
ltibia 20.0998
lfoot -8.97476 2.96097
ltoes 3.01311
